# xmcd
#
# Track frame offsets:
# 150
# 21792
# 36024
# 54713
# 69829
# 83371
# 97292
# 112929
# 125966
# 137786
# 150878
# 166916
#
# Disc length: 2373 seconds
#
#
# Revision: 0
# Processed by: cddbd v1.5.1PL2 Copyright (c) Steve Scherf et al.
# Submitted via: FreeRIP 2.944 
#
DISCID=9309430c
DTITLE=Ronnie McDowell - Now and Again   Best of Ronnie McDowell
DYEAR=1998
DGENRE=Country
TTITLE0=My Heart Will Go On
TTITLE1=Not Even Wild Horses
TTITLE2=That Thing That You Do
TTITLE3=Got a Thing Going On
TTITLE4=Good Fire
TTITLE5=That Just Made Love to Look
TTITLE6=Dream Lover
TTITLE7=Older Women
TTITLE8=In a New York Minute
TTITLE9=You're Gonna Ruin My Bad Reputation
TTITLE10=Unchained Melody
TTITLE11=It's Only Make Believe
EXTD=
EXTT0=
EXTT1=
EXTT2=
EXTT3=
EXTT4=
EXTT5=
EXTT6=
EXTT7=
EXTT8=
EXTT9=
EXTT10=
EXTT11=
PLAYORDER=
